# xmcd
#
# Track frame offsets: 
#        150
#        13504
#        30932
#        42716
#        58067
#        66546
#        84560
#        101795
#        117259
#        127955
#        137395
#        150674
#        157752
#        170441
#        187067
#        200131
#        210021
#
# Disc length: 2830 seconds
#
# Revision: 0
# Processed by: cddbd v1.5.2PL0 Copyright (c) Steve Scherf et al.
# Submitted via: ExactAudioCopy v0.99pb4
#
DISCID=e40b0c11
DTITLE=Blaf - Jadymy dali
DYEAR=2008
DGENRE=Country
TTITLE0=Karlovy Vary
TTITLE1=Jadrobomba
TTITLE2=Sosna
TTITLE3=Kantynsko
TTITLE4=Kuznia
TTITLE5=Mlodzi a starzi
TTITLE6=Visagino
TTITLE7=Se mi chce
TTITLE8=Bajka
TTITLE9=Atomowy Kapturek
TTITLE10=Gip gop
TTITLE11=Tragedium Colleum
TTITLE12=Krzizowatka
TTITLE13=Wieczny sztudent
TTITLE14=Mockba
TTITLE15=Ich habe
TTITLE16=Prozne cicho
EXTD=
EXTT0=
EXTT1=
EXTT2=
EXTT3=
EXTT4=
EXTT5=
EXTT6=
EXTT7=
EXTT8=
EXTT9=
EXTT10=
EXTT11=
EXTT12=
EXTT13=
EXTT14=
EXTT15=
EXTT16=
PLAYORDER=
